<?xml version="1.0" encoding="utf-8"?>
<!-- Generator: Adobe Illustrator 24.3.0, SVG Export Plug-In . SVG Version: 6.00 Build 0)  -->
<svg version="1.1" id="Capa_1" xmlns="http://www.w3.org/2000/svg" xmlns:xlink="http://www.w3.org/1999/xlink" x="0px" y="0px"
	 viewBox="0 0 100 100" style="enable-background:new 0 0 100 100;" xml:space="preserve">
<style type="text/css">
	.st0{fill:#C0C1C5;}
	.st1{fill:#C7C6FF;}
</style>
<path class="st0" d="M36.9,95.3c-3-0.9-5.3-3.4-5.7-6.6l-2.8-13.1L10,70.7c-6.1-1.5-9.5-7.5-8-13.6l0,0l12.1-44.5
	c1.7-5.9,7.8-9.5,13.6-7.8l0,0L90,21.5c5.9,1.5,9.5,7.6,7.9,13.6l-12,44.5c-1.7,5.9-7.8,9.5-13.6,7.8l-18.4-4.9l-8.9,10
	C43.1,94.9,39.9,96.1,36.9,95.3z M26.4,9.4c-3.4-0.9-7,0.9-7.9,4.4L6.6,58.4c-0.9,3.4,1.1,6.8,4.5,7.8l21.2,5.7l3.4,15.9
	c0.2,1.3,0.9,2.5,2.3,3c1.3,0.2,2.6-0.4,3.4-1.5l11-12.1l21.2,5.7c3.4,0.9,7-0.9,7.9-4.4l0,0l11.9-44.7c0.9-3.4-1.1-6.8-4.5-7.8
	L26.4,9.4z"/>
<g>
	<path id="XMLID_503_" class="st1" d="M70.5,42c0.5-0.5,0.5-1.4,0-1.9l-2-2c-0.5-0.5-1.2-0.5-1.7-0.2l-4.2,2.9l2.9-4.3
		c0.4-0.5,0.3-1.2-0.2-1.7l-4.4-4.4c-0.4-0.4-1-0.5-1.5-0.3l-0.8,0.4l0.4-0.8c0.2-0.5,0.1-1.1-0.3-1.5l-1.4-1.4
		c-0.5-0.5-1.4-0.5-1.9,0L44.7,37.6l15.1,15.1L70.5,42z"/>
	<path id="XMLID_1199_" class="st1" d="M44.9,37.3l-3.1,3.1c-0.3,0.3-0.4,0.6-0.4,1c0,0.4,0.1,0.7,0.4,1l2.9,2.9
		c0.6,0.6,0.8,1.3,0.8,2.1c-0.1,0.8-0.5,1.5-1.2,1.9c-8.6,5.5-9.4,6.3-9.7,6.6c-1.9,1.9-1.9,5,0,6.9c1.9,1.9,5,1.9,6.9,0
		c0.3-0.3,1.1-1.1,6.6-9.7c0.4-0.7,1.1-1.1,1.9-1.2c0.8-0.1,1.6,0.2,2.1,0.7l2.9,2.9c0.5,0.5,1.4,0.5,1.9,0l3.1-3.1L44.9,37.3z
		 M39.5,60.6c-0.7,0.7-1.9,0.7-2.7,0c-0.7-0.7-0.7-1.9,0-2.7c0.7-0.7,1.9-0.7,2.7,0C40.2,58.6,40.2,59.8,39.5,60.6z"/>
</g>
</svg>
